<?xml version="1.0" standalone="no"?>
<!DOCTYPE svg PUBLIC "-//W3C//DTD SVG 20010904//EN"
 "http://www.w3.org/TR/2001/REC-SVG-20010904/DTD/svg10.dtd">
<svg version="1.0" xmlns="http://www.w3.org/2000/svg"
 width="838.000000pt" height="527.000000pt" viewBox="0 0 838.000000 527.000000"
 preserveAspectRatio="xMidYMid meet">

<g transform="translate(0.000000,527.000000) scale(0.100000,-0.100000)"
fill="#000000" stroke="none">
<path d="M3610 4815 l0 -315 260 0 260 0 0 -785 c0 -693 -2 -784 -15 -779 -19
8 -19 -9 0 -46 l16 -30 -311 0 -310 0 0 -315 0 -315 310 0 310 0 0 -191 c0
-188 0 -190 -21 -184 l-20 7 21 -41 20 -41 -310 0 -310 0 0 -315 0 -315 310 0
310 0 0 -141 c0 -137 0 -140 -21 -134 l-20 7 21 -41 20 -41 -310 0 -310 0 0
-315 0 -315 625 0 625 0 0 315 0 315 -310 0 c-170 0 -310 3 -310 8 1 4 7 18
15 32 19 32 19 44 0 36 -13 -5 -15 14 -15 134 l0 140 310 0 310 0 0 315 0 315
-310 0 c-170 0 -310 3 -310 8 1 4 7 18 15 32 19 32 19 44 0 36 -13 -5 -15 20
-15 184 l0 190 308 2 307 3 3 313 2 312 -310 0 c-170 0 -310 3 -310 8 1 4 7
18 15 32 19 32 19 44 0 36 -13 -5 -15 86 -15 779 0 708 2 785 16 785 17 0 71
-56 319 -330 87 -96 197 -218 245 -270 97 -106 194 -213 551 -605 135 -149
269 -295 297 -326 56 -61 60 -69 37 -69 -27 0 -16 -17 18 -26 21 -6 -75 -10
-271 -12 l-302 -2 2 -313 3 -312 623 -3 622 -2 0 315 0 315 -315 0 c-267 0
-315 2 -315 14 0 8 -5 27 -10 41 -8 20 -14 24 -23 17 -9 -8 -67 49 -227 225
-118 130 -269 295 -335 368 -521 571 -803 880 -850 933 l-37 42 336 0 336 0 0
315 0 315 -625 0 -625 0 0 -315z m1240 0 l0 -305 -612 2 -613 3 -3 303 -2 302
615 0 615 0 0 -305z m-102 -2267 l-3 -303 -612 -3 -613 -2 0 305 0 305 615 0
615 0 -2 -302z m1542 -3 l0 -305 -612 2 -613 3 -2 303 -2 302 614 0 615 0 0
-305z m-1542 -1082 l2 -303 -615 0 -615 0 0 305 0 305 613 -2 612 -3 3 -302z
m0 -980 l2 -303 -615 0 -615 0 0 305 0 305 613 -2 612 -3 3 -302z"/>
<path d="M3688 4863 c6 -2 18 -2 25 0 6 3 1 5 -13 5 -14 0 -19 -2 -12 -5z"/>
<path d="M4285 4861 c-3 -5 -1 -12 5 -16 5 -3 10 1 10 9 0 18 -6 21 -15 7z"/>
<path d="M3776 4833 c-6 -14 -5 -15 5 -6 7 7 10 15 7 18 -3 3 -9 -2 -12 -12z"/>
<path d="M3816 4841 c8 -8 44 -8 44 1 0 4 -11 7 -25 6 -13 -1 -22 -4 -19 -7z"/>
<path d="M3887 4843 c-18 -17 -5 -33 26 -32 30 2 30 2 5 6 -16 2 -28 9 -28 15
0 6 9 8 20 5 11 -3 18 -1 14 4 -6 11 -28 12 -37 2z"/>
<path d="M4013 4843 c9 -2 23 -2 30 0 6 3 -1 5 -18 5 -16 0 -22 -2 -12 -5z"/>
<path d="M4070 4846 c0 -2 9 -6 20 -9 11 -3 18 -1 14 4 -5 9 -34 13 -34 5z"/>
<path d="M4131 4813 c-1 -37 1 -41 19 -36 26 7 35 21 13 19 -12 -1 -20 9 -24
29 -6 28 -7 27 -8 -12z"/>
<path d="M4150 4846 c0 -2 7 -7 16 -10 8 -3 12 -2 9 4 -6 10 -25 14 -25 6z"/>
<path d="M4463 4843 c9 -2 23 -2 30 0 6 3 -1 5 -18 5 -16 0 -22 -2 -12 -5z"/>
<path d="M4547 4843 c-2 -5 0 -21 4 -38 7 -29 7 -29 8 8 1 35 -3 46 -12 30z"/>
<path d="M4577 4842 c6 -4 13 -21 16 -37 l4 -30 2 32 c0 17 7 34 14 36 6 3 -1
6 -18 6 -16 0 -25 -3 -18 -7z"/>
<path d="M4703 4843 c9 -2 23 -2 30 0 6 3 -1 5 -18 5 -16 0 -22 -2 -12 -5z"/>
<path d="M4768 4843 c6 -2 18 -2 25 0 6 3 1 5 -13 5 -14 0 -19 -2 -12 -5z"/>
<path d="M4511 4813 c-1 -38 4 -41 20 -12 6 13 7 19 1 15 -6 -3 -13 2 -15 11
-3 10 -5 3 -6 -14z"/>
<path d="M4333 4813 c9 -2 23 -2 30 0 6 3 -1 5 -18 5 -16 0 -22 -2 -12 -5z"/>
<path d="M4778 4813 c7 -3 16 -2 19 1 4 3 -2 6 -13 5 -11 0 -14 -3 -6 -6z"/>
<path d="M3751 4794 c0 -11 3 -14 6 -6 3 7 2 16 -1 19 -3 4 -6 -2 -5 -13z"/>
<path d="M4245 4799 c-4 -6 -5 -12 -2 -15 2 -3 7 2 10 11 7 17 1 20 -8 4z"/>
<path d="M3810 4791 c0 -9 38 -12 44 -3 2 4 -7 8 -20 8 -13 1 -24 -1 -24 -5z"/>
<path d="M3888 4788 c6 -6 18 -8 28 -6 14 3 12 5 -9 10 -19 3 -25 2 -19 -4z"/>
<path d="M4085 4790 c-16 -7 -17 -9 -3 -9 9 -1 20 4 23 9 7 11 7 11 -20 0z"/>
<path d="M4775 4790 c-16 -7 -17 -9 -3 -9 9 -1 20 4 23 9 7 11 7 11 -20 0z"/>
<path d="M3678 4783 c12 -2 30 -2 40 0 9 3 -1 5 -23 4 -22 0 -30 -2 -17 -4z"/>
<path d="M3948 2593 c7 -3 16 -2 19 1 4 3 -2 6 -13 5 -11 0 -14 -3 -6 -6z"/>
<path d="M4033 2593 c9 -2 23 -2 30 0 6 3 -1 5 -18 5 -16 0 -22 -2 -12 -5z"/>
<path d="M4160 2559 c0 -40 -1 -41 -30 -37 -16 3 -30 1 -30 -4 0 -4 16 -8 35
-8 35 0 35 0 35 45 0 25 -2 45 -5 45 -3 0 -5 -19 -5 -41z"/>
<path d="M4192 2558 c-1 -27 0 -48 2 -48 2 0 12 12 22 28 14 22 14 25 1 14
-14 -12 -16 -9 -20 20 -3 26 -4 23 -5 -14z"/>
<path d="M4236 2583 c-6 -14 -5 -15 5 -6 7 7 10 15 7 18 -3 3 -9 -2 -12 -12z"/>
<path d="M4293 2593 c9 -2 23 -2 30 0 6 3 -1 5 -18 5 -16 0 -22 -2 -12 -5z"/>
<path d="M3970 2560 c-12 -8 -10 -10 8 -10 13 0 20 4 17 10 -7 12 -6 12 -25 0z"/>
<path d="M4045 2560 l-30 -8 27 -1 c15 0 30 4 33 9 3 6 5 9 3 9 -2 -1 -16 -5
-33 -9z"/>
<path d="M3938 2518 c6 -6 18 -8 28 -6 14 3 12 5 -9 10 -19 3 -25 2 -19 -4z"/>
<path d="M5250 2555 c0 -27 3 -46 6 -42 3 3 6 22 6 42 0 20 -3 39 -6 42 -3 4
-6 -15 -6 -42z"/>
<path d="M5903 2593 c9 -2 25 -2 35 0 9 3 1 5 -18 5 -19 0 -27 -2 -17 -5z"/>
<path d="M6053 2593 c9 -2 23 -2 30 0 6 3 -1 5 -18 5 -16 0 -22 -2 -12 -5z"/>
<path d="M5343 2574 c21 -7 23 -24 3 -24 -8 0 -18 -4 -21 -10 -4 -6 1 -7 10
-3 10 3 21 0 26 -8 7 -10 9 -5 7 16 -2 21 -9 30 -23 32 -16 1 -16 1 -2 -3z"/>
<path d="M5413 2569 c11 -7 23 -7 35 0 14 9 11 10 -18 10 -29 0 -32 -1 -17
-10z"/>
<path d="M5500 2576 c0 -2 9 -6 20 -9 11 -3 18 -1 14 4 -5 9 -34 13 -34 5z"/>
<path d="M5570 2576 c0 -2 9 -6 20 -9 11 -3 18 -1 14 4 -5 9 -34 13 -34 5z"/>
<path d="M5630 2563 c0 -11 3 -14 8 -7 4 6 14 14 22 17 10 4 8 6 -7 6 -16 1
-23 -5 -23 -16z"/>
<path d="M5718 2573 c7 -3 16 -2 19 1 4 3 -2 6 -13 5 -11 0 -14 -3 -6 -6z"/>
<path d="M5960 2544 c0 -19 4 -33 8 -30 8 5 4 66 -4 66 -2 0 -4 -16 -4 -36z"/>
<path d="M6002 2560 c0 -14 2 -19 5 -12 2 6 2 18 0 25 -3 6 -5 1 -5 -13z"/>
<path d="M5490 2549 c0 -5 11 -9 25 -9 14 0 25 2 25 4 0 2 -11 6 -25 8 -14 3
-25 1 -25 -3z"/>
<path d="M5720 2550 c-13 -8 -12 -10 3 -10 9 0 17 5 17 10 0 12 -1 12 -20 0z"/>
<path d="M5280 2543 c0 -6 8 -17 18 -24 16 -13 16 -13 2 6 -8 11 -16 22 -17
24 -2 2 -3 0 -3 -6z"/>
<path d="M5630 2528 c0 -12 7 -18 23 -17 15 0 17 2 7 6 -8 3 -18 11 -22 17 -5
7 -8 4 -8 -6z"/>
<path d="M5860 2531 c0 -6 -15 -12 -32 -14 -29 -3 -28 -4 9 -5 34 -2 41 1 37
13 -7 17 -14 20 -14 6z"/>
<path d="M5410 2520 c-11 -7 -6 -10 20 -10 26 0 31 3 20 10 -8 5 -17 10 -20
10 -3 0 -12 -5 -20 -10z"/>
<path d="M5575 2520 l-30 -8 33 -1 c17 0 32 4 32 9 0 6 -1 9 -2 9 -2 -1 -16
-5 -33 -9z"/>
<path d="M5715 2520 c-13 -6 -15 -9 -5 -9 8 0 22 4 30 9 18 12 2 12 -25 0z"/>
<path d="M6023 2517 c-7 -12 -2 -13 42 -7 l40 6 -38 5 c-21 3 -41 1 -44 -4z"/>
<path d="M5328 2513 c7 -3 16 -2 19 1 4 3 -2 6 -13 5 -11 0 -14 -3 -6 -6z"/>
<path d="M5508 2513 c7 -3 16 -2 19 1 4 3 -2 6 -13 5 -11 0 -14 -3 -6 -6z"/>
<path d="M3793 1584 c19 -6 23 -29 7 -37 -6 -3 -5 -4 2 -3 21 4 15 40 -7 43
-16 1 -16 1 -2 -3z"/>
<path d="M3863 1563 c20 -5 23 -23 5 -23 -9 0 -10 -3 -2 -8 6 -4 14 -14 17
-22 3 -8 6 2 6 23 1 32 -2 37 -21 36 -17 -1 -19 -2 -5 -6z"/>
<path d="M3918 1563 c6 -2 18 -2 25 0 6 3 1 5 -13 5 -14 0 -19 -2 -12 -5z"/>
<path d="M4058 1563 c6 -2 18 -2 25 0 6 3 1 5 -13 5 -14 0 -19 -2 -12 -5z"/>
<path d="M4204 1556 c-3 -9 -10 -13 -15 -10 -5 3 -9 -1 -9 -9 0 -7 7 -14 15
-14 8 0 15 9 15 19 0 19 25 25 33 8 3 -6 4 -5 3 2 -4 19 -35 22 -42 4z"/>
<path d="M4407 1563 c-4 -3 -7 -11 -7 -17 0 -6 5 -5 12 2 6 6 9 14 7 17 -3 3
-9 2 -12 -2z"/>
<path d="M4475 1560 c-3 -5 -1 -10 4 -10 6 0 11 5 11 10 0 6 -2 10 -4 10 -3 0
-8 -4 -11 -10z"/>
<path d="M3918 1533 c6 -2 18 -2 25 0 6 3 1 5 -13 5 -14 0 -19 -2 -12 -5z"/>
<path d="M3983 1533 c9 -2 25 -2 35 0 9 3 1 5 -18 5 -19 0 -27 -2 -17 -5z"/>
<path d="M3840 1521 c0 -10 19 -25 25 -20 1 2 -3 10 -11 17 -8 7 -14 8 -14 3z"/>
<path d="M4133 1513 c-3 -10 -8 -22 -11 -27 -3 -5 0 -6 5 -3 11 7 25 47 17 47
-3 0 -7 -8 -11 -17z"/>
<path d="M4240 1522 c0 -6 -8 -13 -17 -15 -16 -4 -16 -5 -1 -6 18 -1 34 16 24
26 -3 4 -6 1 -6 -5z"/>
<path d="M4375 1520 c-3 -5 -1 -10 4 -10 6 0 11 5 11 10 0 6 -2 10 -4 10 -3 0
-8 -4 -11 -10z"/>
<path d="M4440 1520 c0 -5 5 -10 11 -10 5 0 7 5 4 10 -3 6 -8 10 -11 10 -2 0
-4 -4 -4 -10z"/>
<path d="M3777 1508 c2 -5 10 -8 18 -8 8 0 16 3 18 8 3 4 -5 7 -18 7 -13 0
-21 -3 -18 -7z"/>
<path d="M3923 1503 c9 -2 23 -2 30 0 6 3 -1 5 -18 5 -16 0 -22 -2 -12 -5z"/>
<path d="M3998 1503 c7 -3 16 -2 19 1 4 3 -2 6 -13 5 -11 0 -14 -3 -6 -6z"/>
<path d="M4053 1503 c9 -2 25 -2 35 0 9 3 1 5 -18 5 -19 0 -27 -2 -17 -5z"/>
<path d="M4293 1503 c15 -2 37 -2 50 0 12 2 0 4 -28 4 -27 0 -38 -2 -22 -4z"/>
<path d="M3888 1433 c6 -2 18 -2 25 0 6 3 1 5 -13 5 -14 0 -19 -2 -12 -5z"/>
<path d="M3740 1411 c0 -5 9 -7 20 -4 11 3 20 7 20 9 0 2 -9 4 -20 4 -11 0
-20 -4 -20 -9z"/>
<path d="M3823 1414 c20 -6 23 -24 5 -24 -9 0 -10 -3 -2 -8 6 -4 14 -14 17
-22 4 -8 5 1 4 20 -1 27 -7 35 -22 37 -16 1 -16 1 -2 -3z"/>
<path d="M3875 1410 c-4 -6 -4 -14 -1 -17 3 -4 6 -1 6 5 0 15 26 16 33 2 3 -6
4 -5 3 2 -3 17 -32 22 -41 8z"/>
<path d="M3958 1413 c7 -3 16 -2 19 1 4 3 -2 6 -13 5 -11 0 -14 -3 -6 -6z"/>
<path d="M4020 1410 c-8 -5 -10 -10 -5 -10 6 0 17 5 25 10 8 5 11 10 5 10 -5
0 -17 -5 -25 -10z"/>
<path d="M4103 1414 c20 -6 23 -24 5 -24 -9 0 -10 -3 -2 -8 6 -4 14 -14 17
-22 4 -8 5 1 4 20 -1 27 -7 35 -22 37 -16 1 -16 1 -2 -3z"/>
<path d="M4147 1412 c6 -4 13 -21 16 -37 l4 -30 2 32 c0 17 7 34 14 36 6 3 -1
6 -18 6 -16 0 -25 -3 -18 -7z"/>
<path d="M4205 1409 c-4 -6 -4 -13 -1 -16 3 -4 6 -1 6 5 0 6 8 13 18 15 15 4
15 5 0 6 -9 0 -20 -4 -23 -10z"/>
<path d="M4370 1399 c0 -5 5 -7 10 -4 6 3 10 8 10 11 0 2 -4 4 -10 4 -5 0 -10
-5 -10 -11z"/>
<path d="M4410 1381 c0 -4 11 -6 25 -3 14 2 25 6 25 8 0 2 -11 4 -25 4 -14 0
-25 -4 -25 -9z"/>
<path d="M4240 1371 c0 -8 -8 -11 -20 -8 -11 3 -18 1 -14 -4 3 -5 11 -9 19 -9
16 0 30 18 21 27 -3 4 -6 1 -6 -6z"/>
<path d="M4481 1364 c0 -11 3 -14 6 -6 3 7 2 16 -1 19 -3 4 -6 -2 -5 -13z"/>
<path d="M3800 1360 c0 -6 7 -10 15 -10 8 0 15 2 15 4 0 2 -7 6 -15 10 -8 3
-15 1 -15 -4z"/>
<path d="M3878 1358 c5 -5 16 -8 23 -6 8 3 3 7 -10 11 -17 4 -21 3 -13 -5z"/>
<path d="M3948 1358 c5 -5 16 -8 23 -6 8 3 3 7 -10 11 -17 4 -21 3 -13 -5z"/>
<path d="M4015 1360 c3 -5 14 -10 23 -10 15 0 15 2 2 10 -20 13 -33 13 -25 0z"/>
<path d="M4080 1360 c0 -6 7 -10 15 -10 8 0 15 2 15 4 0 2 -7 6 -15 10 -8 3
-15 1 -15 -4z"/>
<path d="M4270 1359 c0 -5 9 -9 20 -9 11 0 20 2 20 4 0 2 -9 6 -20 9 -11 3
-20 1 -20 -4z"/>
<path d="M4340 1359 c0 -5 5 -7 10 -4 6 3 10 8 10 11 0 2 -4 4 -10 4 -5 0 -10
-5 -10 -11z"/>
<path d="M4428 1353 c7 -3 16 -2 19 1 4 3 -2 6 -13 5 -11 0 -14 -3 -6 -6z"/>
<path d="M3828 495 c-2 -25 0 -45 4 -45 5 0 8 18 8 39 0 33 4 40 23 44 20 4
19 4 -4 6 -25 1 -27 -2 -31 -44z"/>
<path d="M3988 533 c6 -2 18 -2 25 0 6 3 1 5 -13 5 -14 0 -19 -2 -12 -5z"/>
<path d="M4358 533 c7 -3 16 -2 19 1 4 3 -2 6 -13 5 -11 0 -14 -3 -6 -6z"/>
<path d="M3910 516 c0 -2 9 -6 20 -9 11 -3 20 -1 20 4 0 5 -9 9 -20 9 -11 0
-20 -2 -20 -4z"/>
<path d="M3976 511 c-3 -4 6 -6 19 -3 14 2 25 6 25 8 0 8 -39 4 -44 -5z"/>
<path d="M4058 513 c7 -3 16 -2 19 1 4 3 -2 6 -13 5 -11 0 -14 -3 -6 -6z"/>
<path d="M4121 511 c-10 -7 -7 -9 12 -8 14 1 23 5 20 10 -6 9 -15 9 -32 -2z"/>
<path d="M4186 511 c-3 -5 3 -7 14 -4 11 3 20 1 20 -5 0 -5 -9 -12 -20 -15
-30 -8 -26 -37 5 -35 22 2 26 7 23 33 -3 30 -30 47 -42 26z m29 -41 c-3 -5
-10 -10 -16 -10 -5 0 -9 5 -9 10 0 6 7 10 16 10 8 0 12 -4 9 -10z"/>
<path d="M4246 512 c7 -4 14 -18 17 -32 l4 -25 2 27 c0 14 7 29 14 31 6 3 -1
6 -18 6 -16 0 -25 -3 -19 -7z"/>
<path d="M3928 483 c7 -3 16 -2 19 1 4 3 -2 6 -13 5 -11 0 -14 -3 -6 -6z"/>
<path d="M3903 470 c4 -17 47 -27 47 -11 0 6 -7 8 -16 4 -9 -3 -20 0 -26 8 -8
12 -9 11 -5 -1z"/>
<path d="M4110 459 c0 -11 37 -12 43 -1 3 4 -6 8 -19 8 -13 1 -24 -2 -24 -7z"/>
<path d="M4058 453 c7 -3 16 -2 19 1 4 3 -2 6 -13 5 -11 0 -14 -3 -6 -6z"/>
<path d="M4353 453 c9 -2 23 -2 30 0 6 3 -1 5 -18 5 -16 0 -22 -2 -12 -5z"/>
<path d="M3936 4388 c-46 -57 -128 -157 -182 -223 -54 -66 -186 -228 -293
-360 -107 -132 -224 -276 -261 -320 -36 -44 -156 -189 -265 -323 -136 -168
-200 -239 -206 -231 -10 17 -15 11 -26 -31 l-9 -35 -312 -3 -312 -2 0 -315 0
-315 623 2 622 3 3 313 2 312 -302 0 c-278 1 -301 2 -275 16 22 12 26 18 17
29 -8 10 31 64 177 243 103 126 292 357 418 513 127 155 282 346 345 423 330
403 333 406 326 406 -3 0 -44 -46 -90 -102z m-628 -1840 l-3 -303 -612 -3
-613 -2 0 305 0 305 615 0 615 0 -2 -302z"/>
<path d="M2767 2593 c29 -4 32 -7 36 -46 l4 -42 1 48 2 47 -37 -2 c-37 -1 -37
-1 -6 -5z"/>
<path d="M2843 2593 c9 -2 23 -2 30 0 6 3 -1 5 -18 5 -16 0 -22 -2 -12 -5z"/>
<path d="M2918 2593 c6 -2 18 -2 25 0 6 3 1 5 -13 5 -14 0 -19 -2 -12 -5z"/>
<path d="M3063 2593 c9 -2 25 -2 35 0 9 3 1 5 -18 5 -19 0 -27 -2 -17 -5z"/>
<path d="M3138 2593 c6 -2 18 -2 25 0 6 3 1 5 -13 5 -14 0 -19 -2 -12 -5z"/>
<path d="M2353 2579 c-13 -5 -23 -14 -22 -21 0 -10 2 -10 6 0 2 6 11 12 19 12
20 0 17 -37 -3 -49 -15 -9 -13 -10 14 -11 17 0 35 4 38 10 3 6 -1 7 -9 4 -12
-5 -16 1 -16 21 0 20 4 26 15 21 21 -8 19 1 -2 12 -10 6 -28 6 -40 1z"/>
<path d="M2283 2573 c21 -5 23 -23 3 -23 -8 0 -18 -4 -21 -10 -4 -6 1 -7 10
-3 10 3 21 0 26 -8 6 -10 9 -4 9 19 0 27 -4 32 -22 31 -17 -1 -19 -2 -5 -6z"/>
<path d="M2437 2574 c-4 -4 -7 -15 -7 -24 0 -13 6 -16 25 -12 17 3 25 10 23
21 -3 17 -29 26 -41 15z m33 -14 c0 -5 -7 -10 -15 -10 -8 0 -15 5 -15 10 0 6
7 10 15 10 8 0 15 -4 15 -10z"/>
<path d="M2518 2573 c7 -3 16 -2 19 1 4 3 -2 6 -13 5 -11 0 -14 -3 -6 -6z"/>
<path d="M2576 2571 c-4 -5 3 -7 14 -4 23 6 26 13 6 13 -8 0 -17 -4 -20 -9z"/>
<path d="M2663 2574 c23 -7 22 -20 -3 -27 -25 -6 -27 -37 -2 -36 10 0 12 3 5
6 -7 2 -13 9 -13 14 0 14 28 11 34 -3 3 -7 4 0 3 17 -1 22 -7 30 -22 32 -16 1
-16 1 -2 -3z"/>
<path d="M3015 2570 c-3 -5 -1 -10 4 -10 6 0 11 5 11 10 0 6 -2 10 -4 10 -3 0
-8 -4 -11 -10z"/>
<path d="M3130 2559 c0 -5 11 -9 25 -9 14 0 25 2 25 4 0 2 -11 6 -25 8 -14 3
-25 1 -25 -3z"/>
<path d="M2226 2525 c4 -8 11 -15 16 -15 6 0 5 6 -2 15 -7 8 -14 15 -16 15 -2
0 -1 -7 2 -15z"/>
<path d="M2980 2530 c0 -5 5 -10 11 -10 5 0 7 5 4 10 -3 6 -8 10 -11 10 -2 0
-4 -4 -4 -10z"/>
<path d="M2578 2518 c5 -5 16 -8 23 -6 8 3 3 7 -10 11 -17 4 -21 3 -13 -5z"/>
<path d="M2268 2513 c7 -3 16 -2 19 1 4 3 -2 6 -13 5 -11 0 -14 -3 -6 -6z"/>
<path d="M2448 2513 c7 -3 16 -2 19 1 4 3 -2 6 -13 5 -11 0 -14 -3 -6 -6z"/>
<path d="M2503 2513 c9 -2 25 -2 35 0 9 3 1 5 -18 5 -19 0 -27 -2 -17 -5z"/>
<path d="M2918 2513 c6 -2 18 -2 25 0 6 3 1 5 -13 5 -14 0 -19 -2 -12 -5z"/>
<path d="M3143 2513 c9 -2 23 -2 30 0 6 3 -1 5 -18 5 -16 0 -22 -2 -12 -5z"/>
<path d="M4382 4465 c5 -5 176 -107 303 -180 28 -15 46 -24 40 -18 -13 13
-332 203 -342 203 -3 0 -4 -2 -1 -5z"/>
<path d="M3635 4358 c-88 -56 -248 -156 -355 -223 -107 -67 -334 -210 -505
-317 -170 -107 -427 -268 -570 -358 -143 -90 -372 -234 -510 -320 -137 -86
-279 -176 -315 -199 -51 -33 -66 -39 -68 -27 -5 25 -16 19 -36 -19 l-19 -35
-314 0 -313 0 0 -315 0 -315 619 0 c543 0 620 2 625 15 3 8 5 150 5 315 l-1
300 -268 0 c-243 0 -268 2 -274 17 -9 23 -18 16 369 258 182 114 445 279 585
367 140 88 354 223 475 298 121 75 357 224 525 330 168 106 352 222 410 258
117 72 117 72 104 72 -5 0 -81 -46 -169 -102z m-1775 -1813 l0 -305 -610 0
-610 0 0 305 0 305 610 0 610 0 0 -305z"/>
<path d="M1277 2593 c29 -4 32 -7 36 -46 l4 -42 1 48 2 47 -37 -2 c-37 -1 -37
-1 -6 -5z"/>
<path d="M1352 2588 c-16 -16 -15 -53 3 -68 18 -15 47 -10 52 10 4 12 3 12 -5
2 -17 -25 -47 -10 -47 23 0 26 4 30 27 30 14 -1 24 3 22 7 -8 12 -38 10 -52
-4z"/>
<path d="M1453 2593 c9 -2 23 -2 30 0 6 3 -1 5 -18 5 -16 0 -22 -2 -12 -5z"/>
<path d="M1523 2593 c9 -2 25 -2 35 0 9 3 1 5 -18 5 -19 0 -27 -2 -17 -5z"/>
<path d="M1670 2590 c0 -5 5 -10 10 -10 6 0 10 -7 10 -16 0 -10 -6 -14 -15
-11 -8 4 -17 2 -20 -3 -4 -6 5 -10 19 -10 14 0 30 -8 36 -17 13 -20 11 -15
-12 50 -10 26 -28 38 -28 17z"/>
<path d="M1758 2593 c7 -3 16 -2 19 1 4 3 -2 6 -13 5 -11 0 -14 -3 -6 -6z"/>
<path d="M788 2573 c7 -3 16 -2 19 1 4 3 -2 6 -13 5 -11 0 -14 -3 -6 -6z"/>
<path d="M863 2569 c11 -7 23 -7 35 0 14 9 11 10 -18 10 -29 0 -32 -1 -17 -10z"/>
<path d="M947 2574 c-4 -4 -7 -18 -7 -31 0 -26 26 -41 42 -25 8 8 5 9 -11 5
-12 -3 -21 -1 -21 6 0 6 9 11 21 11 14 0 19 5 17 17 -3 19 -29 29 -41 17z m33
-14 c0 -5 -7 -10 -15 -10 -8 0 -15 5 -15 10 0 6 7 10 15 10 8 0 15 -4 15 -10z"/>
<path d="M1018 2573 c6 -2 18 -2 25 0 6 3 1 5 -13 5 -14 0 -19 -2 -12 -5z"/>
<path d="M1080 2571 c0 -5 9 -7 20 -4 11 3 20 7 20 9 0 2 -9 4 -20 4 -11 0
-20 -4 -20 -9z"/>
<path d="M1168 2573 c7 -3 16 -2 19 1 4 3 -2 6 -13 5 -11 0 -14 -3 -6 -6z"/>
<path d="M1615 2570 c-3 -5 -1 -10 4 -10 6 0 11 5 11 10 0 6 -2 10 -4 10 -3 0
-8 -4 -11 -10z"/>
<path d="M701 2563 c0 -5 14 -19 31 -32 26 -21 29 -22 18 -4 -14 22 -50 48
-49 36z"/>
<path d="M793 2550 c-30 -12 -29 -18 2 -12 14 2 25 8 25 13 0 5 -1 9 -2 8 -2
0 -13 -4 -25 -9z"/>
<path d="M1453 2553 c9 -2 23 -2 30 0 6 3 -1 5 -18 5 -16 0 -22 -2 -12 -5z"/>
<path d="M1168 2543 c6 -2 18 -2 25 0 6 3 1 5 -13 5 -14 0 -19 -2 -12 -5z"/>
<path d="M1580 2530 c0 -5 5 -10 11 -10 5 0 7 5 4 10 -3 6 -8 10 -11 10 -2 0
-4 -4 -4 -10z"/>
<path d="M859 2519 c-10 -6 -4 -9 18 -9 17 0 34 3 36 8 7 10 -38 11 -54 1z"/>
<path d="M1000 2518 c0 -4 14 -8 32 -8 17 0 28 3 25 7 -10 9 -57 10 -57 1z"/>
<path d="M1088 2518 c5 -5 16 -8 23 -6 8 3 3 7 -10 11 -17 4 -21 3 -13 -5z"/>
<path d="M1165 2520 c-13 -6 -15 -9 -5 -9 8 0 22 4 30 9 18 12 2 12 -25 0z"/>
<path d="M1765 2520 c-16 -7 -17 -9 -3 -9 9 -1 20 4 23 9 7 11 7 11 -20 0z"/>
<path d="M778 2513 c7 -3 16 -2 19 1 4 3 -2 6 -13 5 -11 0 -14 -3 -6 -6z"/>
<path d="M1453 2513 c9 -2 23 -2 30 0 6 3 -1 5 -18 5 -16 0 -22 -2 -12 -5z"/>
<path d="M4745 4252 c6 -6 109 -69 230 -139 121 -71 324 -190 450 -265 280
-165 333 -194 320 -180 -5 6 -102 64 -215 130 -113 65 -234 137 -270 159 -54
33 -157 93 -490 286 -19 11 -30 15 -25 9z"/>
<path d="M5775 3645 c11 -9 94 -59 185 -112 150 -88 382 -225 895 -527 102
-61 185 -113 185 -116 0 -26 -34 -30 -286 -30 l-263 0 2 -312 2 -313 623 -3
622 -2 0 315 0 315 -314 0 -314 0 -23 38 c-17 28 -24 33 -27 20 -2 -10 -6 -18
-9 -18 -3 0 -60 33 -127 74 -66 41 -213 128 -326 194 -113 66 -333 195 -490
287 -361 211 -359 210 -335 190z m1955 -1100 l0 -305 -610 0 -610 0 0 305 0
305 610 0 610 0 0 -305z"/>
<path d="M6783 2593 c9 -2 23 -2 30 0 6 3 -1 5 -18 5 -16 0 -22 -2 -12 -5z"/>
<path d="M6967 2593 c29 -4 32 -7 36 -46 l4 -42 1 48 2 47 -37 -2 c-37 -1 -37
-1 -6 -5z"/>
<path d="M7032 2555 l-1 -50 17 25 c9 13 25 33 35 42 18 19 21 28 9 28 -4 0
-16 -15 -27 -32 l-20 -33 -6 35 c-6 32 -6 30 -7 -15z"/>
<path d="M7277 2593 c-4 -3 -7 -11 -7 -17 0 -6 5 -5 12 2 6 6 9 14 7 17 -3 3
-9 2 -12 -2z"/>
<path d="M7323 2593 c9 -2 25 -2 35 0 9 3 1 5 -18 5 -19 0 -27 -2 -17 -5z"/>
<path d="M7392 2558 c-1 -27 0 -48 2 -48 2 0 12 12 22 28 14 22 14 25 1 14
-14 -12 -16 -9 -20 20 -3 26 -4 23 -5 -14z"/>
<path d="M7437 2586 c-4 -10 -1 -13 9 -9 15 6 19 23 5 23 -5 0 -11 -7 -14 -14z"/>
<path d="M6783 2553 c9 -2 23 -2 30 0 6 3 -1 5 -18 5 -16 0 -22 -2 -12 -5z"/>
<path d="M7146 2535 c14 -14 28 -25 31 -25 4 0 -4 11 -17 25 -13 14 -27 25
-31 25 -5 0 3 -11 17 -25z"/>
<path d="M7230 2529 c0 -5 5 -7 10 -4 6 3 10 8 10 11 0 2 -4 4 -10 4 -5 0 -10
-5 -10 -11z"/>
<path d="M6880 2520 l-35 -7 43 -2 c27 0 41 3 37 9 -3 6 -7 9 -8 9 -1 -1 -18
-5 -37 -9z"/>
</g>
</svg>
